<?xml version="1.0" ?><!-- Uploaded to: SVG Repo, www.svgrepo.com, Generator: SVG Repo Mixer Tools -->
<svg width="800px" height="800px" viewBox="0 0 64 64" data-name="Lovely Valentine's day" id="Lovely_Valentine_s_day" xmlns="http://www.w3.org/2000/svg"><defs><style>.cls-1{fill:#e29e9a;}.cls-2{fill:#623905;}.cls-3{fill:#f6e3a6;}.cls-4{fill:#268484;}.cls-5{fill:#2c9ea5;}.cls-6{fill:#d26274;}</style></defs><title/><circle class="cls-1" cx="32" cy="32" r="28"/><rect class="cls-2" height="25" rx="2" width="40" x="12" y="27"/><path class="cls-2" d="M50,53H14a3,3,0,0,1-3-3V29a3,3,0,0,1,3-3H50a3,3,0,0,1,3,3V50A3,3,0,0,1,50,53ZM14,28a1,1,0,0,0-1,1V50a1,1,0,0,0,1,1H50a1,1,0,0,0,1-1V29a1,1,0,0,0-1-1Z"/><path class="cls-3" d="M12,28,30.774,13.434a2,2,0,0,1,2.452,0L52,28Z"/><path class="cls-2" d="M52,29H12a1,1,0,0,1-.613-1.79L30.161,12.644a3,3,0,0,1,3.678,0L52.613,27.21A1,1,0,0,1,52,29ZM14.92,27H49.08L32.612,14.224a1,1,0,0,0-1.224,0Z"/><rect class="cls-4" height="31" rx="2" width="34" x="15" y="20"/><path class="cls-2" d="M47,52H17a3,3,0,0,1-3-3V22a3,3,0,0,1,3-3H47a3,3,0,0,1,3,3V49A3,3,0,0,1,47,52ZM17,21a1,1,0,0,0-1,1V49a1,1,0,0,0,1,1H47a1,1,0,0,0,1-1V22a1,1,0,0,0-1-1Z"/><rect class="cls-5" height="24" rx="1.539" width="26" x="19" y="24"/><path class="cls-3" d="M15.06,28.912l33.983,21.24A1,1,0,0,1,48.513,52H13a1,1,0,0,1-1-1V30.608A2,2,0,0,1,15.06,28.912Z"/><path class="cls-2" d="M48.514,53H13a2,2,0,0,1-2-2V30.608a3,3,0,0,1,4.59-2.544L49.573,49.3A2,2,0,0,1,48.514,53ZM14.007,29.6a1.034,1.034,0,0,0-.492.13.98.98,0,0,0-.515.874V51H48.514L14.529,29.761A.968.968,0,0,0,14.007,29.6Z"/><path class="cls-3" d="M48.94,28.912,14.957,50.152A1,1,0,0,0,15.487,52H51a1,1,0,0,0,1-1V30.608A2,2,0,0,0,48.94,28.912Z"/><path class="cls-2" d="M51,53H15.486a2,2,0,0,1-1.059-3.7L48.41,28.064l.53.849-.53-.849A3,3,0,0,1,53,30.608V51A2,2,0,0,1,51,53ZM49.993,29.6a.968.968,0,0,0-.522.157L15.487,51H51V30.608a.98.98,0,0,0-.515-.874A1.034,1.034,0,0,0,49.993,29.6Z"/><path class="cls-6" d="M37,29.446a2.37,2.37,0,0,1-.7,1.7l-1.7,1.7-1.888,1.894a1,1,0,0,1-1.417,0L29.4,32.844l-1.7-1.7a2.39,2.39,0,0,1,.18-3.559,2.508,2.508,0,0,1,3.323.266l.793.793.8-.8a2.514,2.514,0,0,1,3.1-.419A2.368,2.368,0,0,1,37,29.446Z"/><path class="cls-2" d="M32,36.032a1.984,1.984,0,0,1-1.417-.589L27,31.852a3.39,3.39,0,0,1,.255-5.041,3.519,3.519,0,0,1,4.662.335L32,27.23l.091-.09a3.519,3.519,0,0,1,4.339-.556A3.4,3.4,0,0,1,37,31.858l-3.58,3.586A1.987,1.987,0,0,1,32,36.032Zm-2.646-7.959a1.312,1.312,0,0,0-.838.288,1.389,1.389,0,0,0-.108,2.074L32,34.032l3.589-3.594a1.4,1.4,0,0,0-.234-2.167,1.507,1.507,0,0,0-1.85.283l-.8.8a1,1,0,0,1-.707.293h0a1,1,0,0,1-.707-.293L30.5,28.56A1.633,1.633,0,0,0,29.354,28.073Z"/></svg>