<?xml version="1.0" ?>
<!DOCTYPE svg  PUBLIC '-//W3C//DTD SVG 1.1//EN'  'http://www.w3.org/Graphics/SVG/1.1/DTD/svg11.dtd'>
<!-- Uploaded to: SVG Repo, www.svgrepo.com, Generator: SVG Repo Mixer Tools -->
<svg width="800px" height="800px" viewBox="0 0 512 512" version="1.1" xml:space="preserve" xmlns="http://www.w3.org/2000/svg" xmlns:xlink="http://www.w3.org/1999/xlink">
<g id="email_x2C__mail__x2C__letter__x2C__internet__x2C__envelope__x2C__chat__x2C__heart__x2C_">
<g>
<path d="M427.975,98.275L270.54,255.572    c-9.048,9.208-21.203,13.867-33.178,13.867s-23.973-4.659-33.179-13.867L46.885,98.275c6.302-6.438,15.217-10.377,24.851-10.377    h331.253C412.622,87.897,421.536,91.837,427.975,98.275L427.975,98.275z" style="fill-rule:evenodd;clip-rule:evenodd;fill:#B0DCC1;"/>
<path d="M438.351,254.109V123.283c0-9.814-3.938-18.57-10.376-25.008    L296.27,229.979l-25.729,25.593c-9.048,9.208-21.203,13.867-33.178,13.867s-23.973-4.659-33.179-13.867l-25.571-25.593    l-54.969,54.519l-76.758,76.309c6.302,6.438,15.217,10.376,24.851,10.376h227.889c-2.341-8.327-3.511-17.241-3.511-26.447    c0-27.62,11.254-52.629,29.262-70.749c18.097-17.985,43.106-29.24,70.726-29.24C411.182,244.745,425.497,248.099,438.351,254.109    L438.351,254.109z" style="fill-rule:evenodd;clip-rule:evenodd;fill:#B0DCC1;"/>
<path d="M123.643,284.497l54.969-54.519L46.885,98.275    c-6.438,6.438-10.354,15.193-10.354,25.008v212.671c0,9.657,3.917,18.571,10.354,24.852L123.643,284.497z" style="fill-rule:evenodd;clip-rule:evenodd;fill:#B0DCC1;"/>
<path d="M51.566,102.957c-2.611,2.633-4.817,5.852-6.28,9.363c-1.328,3.354-2.184,7-2.184,10.962v212.671    c0,3.805,0.855,7.609,2.184,10.828c0.585,1.463,1.328,2.769,2.048,4.097l126.437-125.717l9.522,9.499L46.749,370.304l-4.681-4.658    c-3.804-3.962-7.023-8.486-9.049-13.597c-2.071-4.974-3.241-10.534-3.241-16.095V123.283c0-5.717,1.17-11.119,3.241-16.095    c2.026-5.267,5.245-9.792,9.049-13.73L51.566,102.957z" style="fill:#4A374F;"/>
<path d="M396.101,265.364c-43.849,0-79.37,35.521-79.37,79.37    c0,43.848,35.521,79.368,79.37,79.368s79.369-35.521,79.369-79.368C475.47,300.885,439.949,265.364,396.101,265.364    L396.101,265.364z" style="fill-rule:evenodd;clip-rule:evenodd;fill:#F36360;"/>
<path d="M396.101,272.072c-20.033,0-38.289,8.193-51.458,21.204c-13.01,13.146-21.181,31.423-21.181,51.458    c0,20.011,8.171,38.288,21.181,51.299c13.169,13.169,31.425,21.339,51.458,21.339s38.312-8.17,51.321-21.339    c13.146-13.011,21.34-31.288,21.34-51.299c0-20.035-8.194-38.313-21.34-51.458C434.412,280.266,416.134,272.072,396.101,272.072    L396.101,272.072z M335.302,283.911c15.51-15.62,36.983-25.277,60.799-25.277c23.68,0,45.335,9.657,60.821,25.277    c15.644,15.51,25.301,36.984,25.301,60.823c0,23.68-9.657,45.311-25.301,60.798c-15.486,15.644-37.142,25.301-60.821,25.301    c-23.815,0-45.289-9.657-60.799-25.301c-15.645-15.487-25.278-37.118-25.278-60.798    C310.023,320.896,319.657,299.421,335.302,283.911L335.302,283.911z" style="fill:#4A374F;"/>
<path d="M301.829,377.913H71.735c-5.537,0-10.939-1.171-15.937-3.22c-5.245-2.048-9.77-5.266-13.731-9.048    l9.499-9.522c2.634,2.634,5.717,4.841,9.364,6.304c3.354,1.305,7.023,2.048,10.805,2.048h226.29    C299.038,369.134,300.209,373.522,301.829,377.913L301.829,377.913z" style="fill:#4A374F;"/>
<path d="M300.952,225.297l37.568,37.725l-0.293,0.137l0,0l-0.157,0.157l-0.135,0.134H337.8l-0.157,0.158    l-0.157,0.135l-0.27,0.158l0,0l-0.159,0.135l-0.157,0.158h-0.135l-0.135,0.136l-0.158,0.156l-0.156,0.135h-0.136l-0.136,0.158    l-0.157,0.135l-0.158,0.157l-0.134,0.135h-0.136l-0.157,0.158l0,0l-0.293,0.136l-0.135,0.157l-0.157,0.135l-0.743,0.585    l-0.271,0.158l-0.158,0.135l-0.157,0.157l0,0l-0.134,0.135l-0.136,0.159l-0.157,0.134l-0.158,0.157l-0.135,0.137h-0.135h-0.158    l-0.157,0.156l-0.135,0.135l-0.136,0.158l-0.157,0.135l-0.586,0.586l-0.157,0.135l-0.135,0.158l-0.293,0.135l0,0l-0.156,0.156    l-0.137,0.136h-0.135l-0.157,0.157l-0.157,0.136l-0.135,0.157l0,0l-0.136,0.135l-0.157,0.158l-0.157,0.135l-0.136,0.157    l-0.135,0.136l-0.158,0.157l0,0l-0.291,0.136l-0.137,0.156l-0.135,0.136l-0.157,0.158l-0.158,0.134l-36.397-36.826    L300.952,225.297z M431.621,251.318V123.283c0-3.962-0.722-7.609-2.184-10.962c-1.463-3.511-3.512-6.73-6.146-9.363l9.364-9.5    c3.939,3.939,7.022,8.464,9.206,13.73c2.049,4.976,3.219,10.377,3.219,16.095v134.181h-0.293l-0.156-0.158l-0.136-0.136    l-0.292-0.135h-0.157l-0.271-0.157l0,0l-0.158-0.136l-0.158-0.158h-0.27l-0.157-0.134l-0.157-0.157h-0.136l-0.135-0.158h-0.157    L442.155,256l-0.135-0.157l-0.158-0.136h-0.293l0,0l-0.134-0.135l-0.316-0.157h-0.134l-0.136-0.135l-0.315-0.158l0,0l-0.135-0.135    h-0.293l-0.157-0.157l-0.271-0.135h-0.157l-0.157-0.158l0,0l-0.271-0.135h-0.158l-0.292-0.157l-0.135-0.135h-0.158l0,0    l-0.292-0.158l-0.136-0.135h-0.291l-0.158-0.157l-0.271-0.135l0,0l-0.766-0.293l-0.27-0.157l0,0h-0.136l-0.315-0.136l-0.135-0.158    h-0.292l-0.157-0.134h-0.136l-0.136-0.158h-0.157l-0.157-0.136h-0.27l-0.158-0.157h-0.293v-0.134h-0.135l-0.314-0.158h-0.136    l-0.292-0.135l-0.157-0.157l0,0h-0.271l-0.157-0.135h-0.293l-0.135-0.158H431.621z" style="fill:#4A374F;"/>
<path d="M432.656,102.957L275.358,260.389c-5.11,5.111-11.098,9.05-17.535,11.684    c-6.415,2.791-13.438,4.097-20.461,4.097c-6.865,0-13.888-1.306-20.461-4.097c-6.28-2.634-12.268-6.572-17.4-11.684L37.385,98.275    l4.683-4.817c3.961-3.804,8.486-6.866,13.731-9.071c4.997-2.048,10.399-3.219,15.937-3.219h331.253    c5.695,0,11.098,1.17,16.072,3.219c5.133,2.206,9.791,5.268,13.596,9.071l4.817,4.817L432.656,102.957z M265.859,250.89    L417.89,98.86c-1.17-0.878-2.634-1.463-3.962-2.048c-3.33-1.463-7.001-2.184-10.939-2.184H71.735    c-3.782,0-7.451,0.721-10.805,2.184c-1.463,0.585-2.791,1.17-4.097,2.048L209,250.89c3.804,3.94,8.329,6.866,13.011,8.757    c4.975,2.048,10.084,3.219,15.352,3.219c5.268,0,10.535-1.171,15.352-3.219C257.531,257.756,261.92,254.83,265.859,250.89    L265.859,250.89z" style="fill:#4A374F;"/>
<path d="M388.807,365.353l7.294,6.122l14.338-12.132c2.05-1.891,4.074-3.647,5.987-5.402    c3.354-3.22,6.597-6.573,8.757-10.085c2.071-3.219,3.377-6.73,3.377-10.669c0-2.207-0.45-4.39-1.172-6.281v-0.45    c-0.72-1.756-1.754-3.354-3.061-4.816c-1.305-1.463-2.926-2.633-4.683-3.378c-1.755-0.876-3.646-1.304-5.717-1.304    c-2.319,0-4.366,0.585-6.257,1.598c-1.915,1.036-3.67,2.634-5.269,4.84l-0.742,1.17c-2.048,3.062-6.146,3.94-9.206,1.891    c-0.878-0.585-1.463-1.17-2.049-2.048l-0.878-1.306c-1.44-2.049-3.196-3.511-5.109-4.547c-1.756-1.013-3.805-1.598-6.146-1.598    c-2.049,0-4.096,0.428-5.695,1.304c-1.756,0.745-3.354,1.915-4.839,3.378c-1.306,1.598-2.342,3.354-2.926,5.267    c-0.721,1.892-1.148,4.074-1.148,6.281c0,2.476,0.428,4.816,1.463,7.022c1.014,2.476,2.611,5.11,4.952,7.744    c2.206,2.633,4.997,5.244,8.06,8.036C381.063,358.622,384.845,361.841,388.807,365.353L388.807,365.353z M380.613,375.864    l-0.45-0.292c-3.781-3.354-7.427-6.438-11.097-9.636c-3.513-3.219-6.573-6.302-9.207-9.362c-3.062-3.646-5.402-7.451-7.023-11.255    c-1.756-3.939-2.61-8.036-2.61-12.133c0-3.805,0.72-7.452,2.026-10.963c1.17-3.512,3.061-6.73,5.56-9.364    c2.634-2.925,5.694-5.267,9.206-6.865c3.512-1.598,7.315-2.341,11.255-2.341c4.548,0,8.779,1.013,12.561,3.219    c1.914,1.013,3.668,2.184,5.268,3.646c1.62-1.463,3.376-2.634,5.267-3.646c3.805-2.206,8.059-3.219,12.561-3.219    c3.826,0,7.608,0.743,11.119,2.341c3.513,1.599,6.731,3.94,9.365,6.865c2.341,2.634,4.097,5.695,5.402,9.072l0.135,0.292    c1.327,3.511,1.913,7.158,1.913,10.963c0,6.73-2.048,12.561-5.425,17.692c-2.904,4.816-6.842,8.914-10.94,12.718    c-1.891,1.892-4.096,3.782-6.302,5.831l-16.364,13.889c-1.013,0.741-2.049,1.462-3.219,1.755c-1.171,0.45-2.341,0.742-3.512,0.742    s-2.341-0.292-3.646-0.742c-0.878-0.293-1.891-0.879-2.792-1.599l-0.27-0.156C386.602,380.839,383.54,378.34,380.613,375.864    L380.613,375.864z" style="fill:#4A374F;"/>
</g>
</g>
<g id="Layer_1"/>
</svg>